<?xml version="1.0" encoding="UTF-8"?>
<!DOCTYPE svg PUBLIC "-//W3C//DTD SVG 1.1//EN" "http://www.w3.org/Graphics/SVG/1.1/DTD/svg11.dtd">
<svg xmlns="http://www.w3.org/2000/svg" version="1.1" width="312px" height="299px" style="shape-rendering:geometricPrecision; text-rendering:geometricPrecision; image-rendering:optimizeQuality; fill-rule:evenodd; clip-rule:evenodd" xmlns:xlink="http://www.w3.org/1999/xlink">
<g><path style="opacity:0.264" fill="#c2e8e6" d="M 205.5,56.5 C 168.809,56.1921 132.143,56.5254 95.5,57.5C 96.2625,56.7321 97.2625,56.2321 98.5,56C 134.336,55.169 170.002,55.3357 205.5,56.5 Z"/></g>
<g><path style="opacity:1" fill="#41aea7" d="M 205.5,56.5 C 226.283,60.1188 238.117,72.4522 241,93.5C 241.667,127.5 241.667,161.5 241,195.5C 238.053,215.907 226.553,228.407 206.5,233C 170.167,233.667 133.833,233.667 97.5,233C 81.6737,229.173 70.8403,219.673 65,204.5C 63.8778,184.698 63.3778,164.865 63.5,145C 63.3715,125.464 63.8715,105.964 65,86.5C 69.5386,70.7921 79.7053,61.1254 95.5,57.5C 132.143,56.5254 168.809,56.1921 205.5,56.5 Z M 209.5,65.5 C 221.415,70.2543 228.915,78.921 232,91.5C 232.968,128.539 232.635,165.539 231,202.5C 225.275,216.542 214.775,224.042 199.5,225C 167.833,225.667 136.167,225.667 104.5,225C 88.5883,223.08 78.0883,214.58 73,199.5C 72.3333,163.167 72.3333,126.833 73,90.5C 76.5277,78.4779 84.0277,70.1445 95.5,65.5C 133.5,64.1667 171.5,64.1667 209.5,65.5 Z"/></g>
<g><path style="opacity:0.116" fill="#def3f1" d="M 209.5,65.5 C 171.5,64.1667 133.5,64.1667 95.5,65.5C 96.2625,64.7321 97.2625,64.2321 98.5,64C 134.5,63.3333 170.5,63.3333 206.5,64C 207.737,64.2321 208.737,64.7321 209.5,65.5 Z"/></g>
<g><path style="opacity:0.463" fill="#c1c1c1" d="M 156.5,83.5 C 155.5,82.1667 154.5,82.1667 153.5,83.5C 154.5,79.5 155.5,79.5 156.5,83.5 Z"/></g>
<g><path style="opacity:1" fill="#0d0d0d" d="M 156.5,83.5 C 156.66,85.153 157.326,86.4863 158.5,87.5C 158.66,89.153 159.326,90.4863 160.5,91.5C 160.66,93.153 161.326,94.4863 162.5,95.5C 163.338,95.8417 163.672,96.5084 163.5,97.5C 163.66,99.153 164.326,100.486 165.5,101.5C 167.625,104.088 168.958,107.088 169.5,110.5C 169.427,112.027 170.094,113.027 171.5,113.5C 172.338,113.842 172.672,114.508 172.5,115.5C 172.229,117.38 172.896,118.713 174.5,119.5C 174.5,119.833 174.5,120.167 174.5,120.5C 174.427,122.027 175.094,123.027 176.5,123.5C 176.5,123.833 176.5,124.167 176.5,124.5C 176.427,126.027 177.094,127.027 178.5,127.5C 179.338,127.842 179.672,128.508 179.5,129.5C 179.229,131.38 179.896,132.713 181.5,133.5C 181.5,133.833 181.5,134.167 181.5,134.5C 181.427,136.027 182.094,137.027 183.5,137.5C 183.5,137.833 183.5,138.167 183.5,138.5C 183.414,139.496 183.748,140.329 184.5,141C 177.833,141.667 171.167,141.667 164.5,141C 163.934,140.005 163.267,139.172 162.5,138.5C 162.008,136.181 161.008,134.181 159.5,132.5C 159.34,130.847 158.674,129.514 157.5,128.5C 157.205,126.577 156.372,124.91 155,123.5C 154.536,124.094 154.369,124.761 154.5,125.5C 154.672,126.492 154.338,127.158 153.5,127.5C 152.326,128.514 151.66,129.847 151.5,131.5C 150.341,135.151 148.674,138.485 146.5,141.5C 139.8,141.83 133.134,141.497 126.5,140.5C 127.127,139.583 127.461,138.583 127.5,137.5C 129.044,132.081 131.378,127.081 134.5,122.5C 136.969,121.393 137.969,119.393 137.5,116.5C 139.659,110.849 142.326,105.516 145.5,100.5C 146.674,99.4863 147.34,98.153 147.5,96.5C 149.264,91.978 151.264,87.6446 153.5,83.5C 154.5,82.1667 155.5,82.1667 156.5,83.5 Z"/></g>
<g><path style="opacity:0.102" fill="#c6c6c6" d="M 156.5,83.5 C 158.104,84.287 158.771,85.6203 158.5,87.5C 157.326,86.4863 156.66,85.153 156.5,83.5 Z"/></g>
<g><path style="opacity:0.114" fill="#c4c4c4" d="M 158.5,87.5 C 160.104,88.287 160.771,89.6203 160.5,91.5C 159.326,90.4863 158.66,89.153 158.5,87.5 Z"/></g>
<g><path style="opacity:0.125" fill="#c8c8c8" d="M 160.5,91.5 C 162.104,92.287 162.771,93.6203 162.5,95.5C 161.326,94.4863 160.66,93.153 160.5,91.5 Z"/></g>
<g><path style="opacity:0.075" fill="#c7c7c7" d="M 147.5,96.5 C 147.34,98.153 146.674,99.4863 145.5,100.5C 145.229,98.6203 145.896,97.287 147.5,96.5 Z"/></g>
<g><path style="opacity:0.086" fill="#cecece" d="M 163.5,97.5 C 165.104,98.287 165.771,99.6203 165.5,101.5C 164.326,100.486 163.66,99.153 163.5,97.5 Z"/></g>
<g><path style="opacity:0.302" fill="#a9a9a9" d="M 169.5,110.5 C 170.906,110.973 171.573,111.973 171.5,113.5C 170.094,113.027 169.427,112.027 169.5,110.5 Z"/></g>
<g><path style="opacity:0.231" fill="#c3c3c3" d="M 172.5,115.5 C 173.674,116.514 174.34,117.847 174.5,119.5C 172.896,118.713 172.229,117.38 172.5,115.5 Z"/></g>
<g><path style="opacity:0.98" fill="#575757" d="M 137.5,116.5 C 137.969,119.393 136.969,121.393 134.5,122.5C 134.992,120.181 135.992,118.181 137.5,116.5 Z"/></g>
<g><path style="opacity:0.235" fill="#b6b6b6" d="M 174.5,120.5 C 175.906,120.973 176.573,121.973 176.5,123.5C 175.094,123.027 174.427,122.027 174.5,120.5 Z"/></g>
<g><path style="opacity:0.012" fill="#d3d3d3" d="M 157.5,128.5 C 156.272,127.694 155.272,126.694 154.5,125.5C 154.369,124.761 154.536,124.094 155,123.5C 156.372,124.91 157.205,126.577 157.5,128.5 Z"/></g>
<g><path style="opacity:0.251" fill="#b5b5b5" d="M 176.5,124.5 C 177.906,124.973 178.573,125.973 178.5,127.5C 177.094,127.027 176.427,126.027 176.5,124.5 Z"/></g>
<g><path style="opacity:0.161" fill="#c0c0c0" d="M 157.5,128.5 C 158.674,129.514 159.34,130.847 159.5,132.5C 157.896,131.713 157.229,130.38 157.5,128.5 Z"/></g>
<g><path style="opacity:0.082" fill="#d4d4d4" d="M 153.5,127.5 C 153.771,129.38 153.104,130.713 151.5,131.5C 151.66,129.847 152.326,128.514 153.5,127.5 Z"/></g>
<g><path style="opacity:0.204" fill="#cacaca" d="M 179.5,129.5 C 180.674,130.514 181.34,131.847 181.5,133.5C 179.896,132.713 179.229,131.38 179.5,129.5 Z"/></g>
<g><path style="opacity:0.125" fill="#c3c3c3" d="M 159.5,132.5 C 161.008,134.181 162.008,136.181 162.5,138.5C 160.461,137.089 159.461,135.089 159.5,132.5 Z"/></g>
<g><path style="opacity:0.208" fill="#bcbcbc" d="M 181.5,134.5 C 182.906,134.973 183.573,135.973 183.5,137.5C 182.094,137.027 181.427,136.027 181.5,134.5 Z"/></g>
<g><path style="opacity:0.132" fill="#d2d2d2" d="M 127.5,137.5 C 127.461,138.583 127.127,139.583 126.5,140.5C 133.134,141.497 139.8,141.83 146.5,141.5C 139.679,142.655 132.679,142.821 125.5,142C 124.833,140.143 125.5,138.643 127.5,137.5 Z"/></g>
<g><path style="opacity:0.129" fill="#d6d6d6" d="M 162.5,138.5 C 163.267,139.172 163.934,140.005 164.5,141C 171.167,141.667 177.833,141.667 184.5,141C 183.748,140.329 183.414,139.496 183.5,138.5C 185.104,139.287 185.771,140.62 185.5,142.5C 178.159,142.666 170.826,142.5 163.5,142C 162.663,140.989 162.33,139.822 162.5,138.5 Z"/></g>
<g><path style="opacity:0.152" fill="#dcedec" d="M 197.5,149.5 C 198.263,148.732 199.263,148.232 200.5,148C 162.664,147.169 124.998,147.336 87.5,148.5C 86.9569,148.44 86.6236,148.107 86.5,147.5C 125.5,146.167 164.5,146.167 203.5,147.5C 201.827,149.086 199.827,149.753 197.5,149.5 Z"/></g>
<g><path style="opacity:0.999" fill="#53a49d" d="M 197.5,149.5 C 188.681,152.438 179.681,154.771 170.5,156.5C 167.848,156.41 165.515,157.076 163.5,158.5C 162.292,159.234 160.959,159.567 159.5,159.5C 156.848,159.41 154.515,160.076 152.5,161.5C 143.642,164.366 134.642,166.699 125.5,168.5C 122.848,168.41 120.515,169.076 118.5,170.5C 114.492,172.376 110.492,173.042 106.5,172.5C 105.864,170.205 104.531,168.539 102.5,167.5C 97.1259,161.46 92.1259,155.126 87.5,148.5C 124.998,147.336 162.664,147.169 200.5,148C 199.263,148.232 198.263,148.732 197.5,149.5 Z"/></g>
<g><path style="opacity:0.667" fill="#abd2cf" d="M 193.5,157.5 C 194.85,156.35 194.684,155.683 193,155.5C 190.901,156.287 188.734,156.62 186.5,156.5C 191.52,154.653 196.687,152.986 202,151.5C 202.617,152.449 202.451,153.282 201.5,154C 198.929,155.454 196.262,156.62 193.5,157.5 Z"/></g>
<g><path style="opacity:0.999" fill="#5eaaa3" d="M 193.5,157.5 C 160.618,174.441 127.618,191.108 94.5,207.5C 93.8333,207.167 93.1667,206.833 92.5,206.5C 97.3722,196.589 102.372,186.755 107.5,177C 133.784,169.847 160.118,163.014 186.5,156.5C 188.734,156.62 190.901,156.287 193,155.5C 194.684,155.683 194.85,156.35 193.5,157.5 Z"/></g>
<g><path style="opacity:0.055" fill="#d0e6e4" d="M 170.5,156.5 C 168.485,157.924 166.152,158.59 163.5,158.5C 165.515,157.076 167.848,156.41 170.5,156.5 Z"/></g>
<g><path style="opacity:0.012" fill="#e4f1f0" d="M 159.5,159.5 C 157.485,160.924 155.152,161.59 152.5,161.5C 154.515,160.076 156.848,159.41 159.5,159.5 Z"/></g>
<g><path style="opacity:0.169" fill="#b6b6b6" d="M 196.5,164.5 C 194.901,163.438 193.234,163.438 191.5,164.5C 193.296,161.952 194.962,161.952 196.5,164.5 Z"/></g>
<g><path style="opacity:1" fill="#161616" d="M 196.5,164.5 C 197.674,165.514 198.34,166.847 198.5,168.5C 198.66,170.153 199.326,171.486 200.5,172.5C 202.625,175.088 203.958,178.088 204.5,181.5C 204.427,183.027 205.094,184.027 206.5,184.5C 208.957,187.751 210.624,191.418 211.5,195.5C 211.427,197.027 212.094,198.027 213.5,198.5C 214.674,199.514 215.34,200.847 215.5,202.5C 215.5,203.5 215.5,204.5 215.5,205.5C 214.5,205.5 213.5,205.5 212.5,205.5C 211.486,204.326 210.153,203.66 208.5,203.5C 202.849,201.341 197.516,198.674 192.5,195.5C 192.027,194.094 191.027,193.427 189.5,193.5C 186.659,189.151 184.326,184.484 182.5,179.5C 182.771,177.62 182.104,176.287 180.5,175.5C 180.579,174.07 180.246,172.736 179.5,171.5C 180.243,170.818 180.909,170.151 181.5,169.5C 183.153,169.34 184.486,168.674 185.5,167.5C 187.153,167.34 188.486,166.674 189.5,165.5C 189.842,164.662 190.508,164.328 191.5,164.5C 193.234,163.438 194.901,163.438 196.5,164.5 Z"/></g>
<g><path style="opacity:0.545" fill="#aaaaaa" d="M 189.5,165.5 C 188.486,166.674 187.153,167.34 185.5,167.5C 186.287,165.896 187.62,165.229 189.5,165.5 Z"/></g>
<g><path style="opacity:0.541" fill="#aaaaaa" d="M 185.5,167.5 C 184.486,168.674 183.153,169.34 181.5,169.5C 182.287,167.896 183.62,167.229 185.5,167.5 Z"/></g>
<g><path style="opacity:0.012" fill="#cee5e3" d="M 102.5,167.5 C 104.531,168.539 105.864,170.205 106.5,172.5C 104.457,171.421 103.124,169.754 102.5,167.5 Z"/></g>
<g><path style="opacity:0.024" fill="#e0efed" d="M 125.5,168.5 C 123.485,169.924 121.152,170.59 118.5,170.5C 120.515,169.076 122.848,168.41 125.5,168.5 Z"/></g>
<g><path style="opacity:0.347" fill="#b9b9b9" d="M 181.5,169.5 C 180.909,170.151 180.243,170.818 179.5,171.5C 180.246,172.736 180.579,174.07 180.5,175.5C 178.926,173.898 178.259,171.898 178.5,169.5C 179.5,169.5 180.5,169.5 181.5,169.5 Z"/></g>
<g><path style="opacity:0.082" fill="#c9c9c9" d="M 198.5,168.5 C 200.104,169.287 200.771,170.62 200.5,172.5C 199.326,171.486 198.66,170.153 198.5,168.5 Z"/></g>
<g><path style="opacity:0.345" fill="#b1b1b1" d="M 180.5,175.5 C 182.104,176.287 182.771,177.62 182.5,179.5C 181.326,178.486 180.66,177.153 180.5,175.5 Z"/></g>
<g><path style="opacity:0.333" fill="#a3a3a3" d="M 204.5,181.5 C 205.906,181.973 206.573,182.973 206.5,184.5C 205.094,184.027 204.427,183.027 204.5,181.5 Z"/></g>
<g><path style="opacity:0.349" fill="#9f9f9f" d="M 189.5,193.5 C 191.027,193.427 192.027,194.094 192.5,195.5C 190.973,195.573 189.973,194.906 189.5,193.5 Z"/></g>
<g><path style="opacity:0.31" fill="#a9a9a9" d="M 211.5,195.5 C 212.906,195.973 213.573,196.973 213.5,198.5C 212.094,198.027 211.427,197.027 211.5,195.5 Z"/></g>
<g><path style="opacity:0.09" fill="#cfcfcf" d="M 208.5,203.5 C 210.153,203.66 211.486,204.326 212.5,205.5C 210.62,205.771 209.287,205.104 208.5,203.5 Z"/></g>
<g><path style="opacity:0.396" fill="#a3a3a3" d="M 215.5,202.5 C 219.699,207.732 218.699,208.732 212.5,205.5C 213.5,205.5 214.5,205.5 215.5,205.5C 215.5,204.5 215.5,203.5 215.5,202.5 Z"/></g>
</svg>
